<svg xmlns="http://www.w3.org/2000/svg" viewBox="0 0 157 34.01"><defs><style>.cls-1{fill:#0048ff;}</style></defs><title>Asset 1</title><g id="Layer_2" data-name="Layer 2"><g id="Layer_1-2" data-name="Layer 1"><path class="cls-1" d="M11.24.44c6.21,0,11.62,3,11.62,10.47S18.67,22.39,11.1,22.39H8.64V33.57H0V.44ZM10.1,15.31c2.8,0,4.12-1,4.12-4.24,0-2.41-1.64-3.74-4-3.74H8.64v8Z"/><path class="cls-1" d="M24.76,27.07c0-11.35,1.78-20,7.15-26.63h8c5.36,6.64,7.15,15.33,7.15,26.63v6.5H38.46V24.93H33.4v8.64H24.76Zm13.86-8.35a43.9,43.9,0,0,0-2.72-12,43.93,43.93,0,0,0-2.73,12Z"/><path class="cls-1" d="M75.53.44H87.8c5,0,9,2,9.56,7.58.24,2.58-.17,5.47-2.37,7.26,2.55,1.72,2.74,4,2.74,8.3,0,7.61-3.75,10-10.63,10H75.53Zm13.32,9.7c0-2.67-.58-3.64-3-3.64H84.18v6.55h1.34C87.92,13.05,88.85,12.42,88.85,10.14Zm-3.5,17.12c3,0,3.5-1.11,3.5-4.51,0-2.91-.82-4.22-3-4.22H84.18v8.73Z"/><path class="cls-1" d="M117.17,0a17,17,0,1,0,17,17A17,17,0,0,0,117.17,0Zm0,26c-4.25,0-7.69-4-7.69-9s3.44-9,7.69-9,7.68,4,7.68,9S121.41,26,117.17,26Z"/><path class="cls-1" d="M135.54,1.12V.44h8.64c.17,9.17,1.09,14.89,2.12,17,1-2.14,1.94-7.81,2.12-17H157V2a40.51,40.51,0,0,1-6.41,22.12v9.41H142V24.16C137.77,17.9,135.54,10,135.54,1.12Z"/><path class="cls-1" d="M49,1.12V.44h8.64c.17,9.17,1.09,14.89,2.12,17,1-2.14,1.94-7.81,2.11-17h8.59V2a40.51,40.51,0,0,1-6.41,22.12v9.41H55.41V24.16C51.23,17.9,49,10,49,1.12Z"/></g></g></svg>